<svg width="44" height="44" viewBox="0 0 44 44" fill="none" xmlns="http://www.w3.org/2000/svg">
<g clip-path="url(#clip0_788_17513)">
<path fill-rule="evenodd" clip-rule="evenodd" d="M22 44C34.1503 44 44 34.1503 44 22C44 9.84974 34.1503 0 22 0C9.84974 0 0 9.84974 0 22C0 34.1503 9.84974 44 22 44ZM22 40.8571C32.4145 40.8571 40.8571 32.4145 40.8571 22C40.8571 11.5855 32.4145 3.14286 22 3.14286C11.5855 3.14286 3.14286 11.5855 3.14286 22C3.14286 32.4145 11.5855 40.8571 22 40.8571Z" fill="black" fill-opacity="0.4"/>
<circle cx="22" cy="22" r="19" fill="#FF3300"/>
<circle cx="22" cy="22" r="19" fill="black" fill-opacity="0.4"/>
<path fill-rule="evenodd" clip-rule="evenodd" d="M22 43C33.598 43 43 33.598 43 22C43 10.402 33.598 1 22 1C10.402 1 1 10.402 1 22C1 33.598 10.402 43 22 43ZM22 40.9999C32.4934 40.9999 40.9999 32.4934 40.9999 22C40.9999 11.5066 32.4934 3 22 3C11.5066 3 3 11.5066 3 22C3 32.4934 11.5066 40.9999 22 40.9999Z" fill="#FF3300"/>
<path fill-rule="evenodd" clip-rule="evenodd" d="M22 34C28.6274 34 34 28.6274 34 22C34 15.3726 28.6274 10 22 10C15.3726 10 10 15.3726 10 22C10 28.6274 15.3726 34 22 34ZM22 27C19.2386 27 17 24.7614 17 22C17 19.2386 19.2386 17 22 17C24.7614 17 27 19.2386 27 22C27 24.7614 24.7614 27 22 27Z" fill="#FF3300"/>
</g>
<defs>
<clipPath id="clip0_788_17513">
<rect width="44" height="44" fill="white"/>
</clipPath>
</defs>
</svg>
