<svg width="14" height="14" viewBox="0 0 14 14" fill="none" xmlns="http://www.w3.org/2000/svg">
<g clip-path="url(#clip0_787_17844)">
<path fill-rule="evenodd" clip-rule="evenodd" d="M7 14C10.866 14 14 10.866 14 7C14 3.13401 10.866 0 7 0C3.13401 0 0 3.13401 0 7C0 10.866 3.13401 14 7 14ZM7 13C10.3137 13 13 10.3137 13 7C13 3.68629 10.3137 1 7 1C3.68629 1 1 3.68629 1 7C1 10.3137 3.68629 13 7 13Z" fill="black" fill-opacity="0.4"/>
<circle cx="7" cy="7" r="6" fill="#FF3300"/>
<circle cx="7" cy="7" r="6" fill="black" fill-opacity="0.4"/>
<path fill-rule="evenodd" clip-rule="evenodd" d="M7 13C10.3137 13 13 10.3137 13 7C13 3.68629 10.3137 1 7 1C3.68629 1 1 3.68629 1 7C1 10.3137 3.68629 13 7 13ZM7 12C9.76142 12 12 9.76142 12 7C12 4.23858 9.76142 2 7 2C4.23858 2 2 4.23858 2 7C2 9.76142 4.23858 12 7 12Z" fill="#FF3300"/>
<path d="M10 7C10 8.65685 8.65685 10 7 10C5.34315 10 4 8.65685 4 7C4 5.34315 5.34315 4 7 4C8.65685 4 10 5.34315 10 7Z" fill="#FF3300"/>
</g>
<defs>
<clipPath id="clip0_787_17844">
<rect width="14" height="14" fill="white"/>
</clipPath>
</defs>
</svg>
