<svg width="28" height="28" viewBox="0 0 28 28" fill="none" xmlns="http://www.w3.org/2000/svg">
<path fill-opacity="0.4" fill-rule="evenodd" clip-rule="evenodd" d="M25.5293 7.93186C24.8618 6.64587 23.9885 5.48573 22.9531 4.49518L7.45679 25.2967C8.646 25.9952 9.95532 26.5094 11.3459 26.7999L25.5293 7.93186ZM15.3784 27L26.7976 11.6718C26.9307 12.4225 27 13.1953 27 13.9848C27 20.7441 21.9102 26.3069 15.3784 27ZM16.2922 1.09979C17.7493 1.36082 19.1221 1.86618 20.3679 2.57209L4.82129 23.2531C3.82471 22.2528 2.98828 21.0902 2.35474 19.8086L16.2922 1.09979ZM12.3589 1C5.9541 1.8121 1 7.3159 1 13.9848C1 14.643 1.0481 15.2899 1.14136 15.9221L12.3589 1Z" fill="#FF3300"/>
<path fill-rule="evenodd" clip-rule="evenodd" d="M14 21C17.866 21 21 17.866 21 14C21 10.134 17.866 7 14 7C10.134 7 7 10.134 7 14C7 17.866 10.134 21 14 21ZM14 20C17.3137 20 20 17.3137 20 14C20 10.6863 17.3137 8 14 8C10.6863 8 8 10.6863 8 14C8 17.3137 10.6863 20 14 20Z" fill="black" fill-opacity="0.4"/>
<circle cx="14" cy="14" r="6" fill="#FF3300"/>
<circle cx="14" cy="14" r="6" fill="black" fill-opacity="0.4"/>
<path fill-rule="evenodd" clip-rule="evenodd" d="M14 20C17.3137 20 20 17.3137 20 14C20 10.6863 17.3137 8 14 8C10.6863 8 8 10.6863 8 14C8 17.3137 10.6863 20 14 20ZM14 19C16.7614 19 19 16.7614 19 14C19 11.2386 16.7614 9 14 9C11.2386 9 9 11.2386 9 14C9 16.7614 11.2386 19 14 19Z" fill="#FF3300"/>
<path d="M17 14C17 15.6569 15.6569 17 14 17C12.3431 17 11 15.6569 11 14C11 12.3431 12.3431 11 14 11C15.6569 11 17 12.3431 17 14Z" fill="#FF3300"/>
</svg>
