<svg width="7" height="13" x="3.5" y="6.5" viewBox="0 0 7 13" fill="none" xmlns="http://www.w3.org/2000/svg">
<path fill-rule="evenodd" d="M3.5 0L0 4V13H7V4L3.5 0ZM3.5 1.13894L0.75 4.2818V4.5625L6.25 6.85417V4.2818L3.5 1.13894ZM0.75 7.0625V5.64583L6.25 7.9375V9.35417L0.75 7.0625ZM0.75 8.14583V12.25H6.25V10.4375L0.75 8.14583Z" fill="#BFBFBF" fill-opacity="0.3"/>
<path fill-rule="evenodd" d="M3.5 1.13894L0.75 4.2818V4.5625L6.25 6.85417V4.2818L3.5 1.13894ZM0.75 7.0625V5.64583L6.25 7.9375V9.35417L0.75 7.0625ZM0.75 8.14583V12.25H6.25V10.4375L0.75 8.14583Z" fill="black" fill-opacity="0.8"/>
</svg>
