<svg width="16" height="20" x="8" y="10" viewBox="0 0 16 20" fill="none" xmlns="http://www.w3.org/2000/svg">
<path fill-rule="evenodd" d="M8.00003 0.5C8.20624 0.5 8.39129 0.626591 8.46603 0.818777L15.466 18.8188C15.5445 19.0206 15.4841 19.2501 15.3164 19.3872C15.1487 19.5242 14.9118 19.5377 14.7296 19.4206L8.00003 15.0944L1.27041 19.4206C1.08822 19.5377 0.851332 19.5242 0.683624 19.3872C0.515917 19.2501 0.455524 19.0206 0.534026 18.8188L7.53403 0.818777C7.60877 0.626591 7.79382 0.5 8.00003 0.5Z" fill="#BFBFBF" fill-opacity="0.3"/>
<path fill-rule="evenodd" d="M8 14.5L15 19L8 1L1 19L8 14.5Z" fill="black" fill-opacity="0.65"/>
</svg>
